# xmcd
#
# Track frame offsets:
# 150
# 34275
# 69722
# 92123
# 130295
# 156638
# 199710
# 251442
# 296737
# 320685
# 356687
#
# Disc length: 4784 seconds
#
# Revision: 0
# Processed by: cddbd v1.4PL0 Copyright (c) Steve Scherf et al.
# Submitted via: Axialis_AX_CDPlayer 2.6
#
DISCID=b212ae0b
DTITLE=Rory Gallagher - Irish tour
DYEAR=1900
DGENRE=
TTITLE0=Cradle rock
TTITLE1=I wonder who (who's gonna be your sweet man)
TTITLE2=Tattoo'd lady
TTITLE3=Too much alcohol
TTITLE4=As the crow flies
TTITLE5=A million miles away
TTITLE6=Walk on hot coals
TTITLE7=Who's that coming
TTITLE8=Back on my (stompin' ground)
TTITLE9=Just a little bit
TTITLE10=Maritime
EXTD=
EXTT0=
EXTT1=
EXTT2=
EXTT3=
EXTT4=
EXTT5=
EXTT6=
EXTT7=
EXTT8=
EXTT9=
EXTT10=
PLAYORDER=
